Coordinates
version=1
nRows=4
nColumns=63
inDegrees=yes

Units are S.I. units (second, meters, Newtons, ...)
If the header above contains a line with 'inDegrees', this indicates whether rotational values are in degrees (yes) or radians (no).

endheader
time	pelvis_tilt	pelvis_list	pelvis_rotation	pelvis_tx	pelvis_ty	pelvis_tz	hip_flexion_r	hip_adduction_r	hip_rotation_r	knee_angle_r	knee_angle_r_beta	ankle_angle_r	subtalar_angle_r	mtp_angle_r	hip_flexion_l	hip_adduction_l	hip_rotation_l	knee_angle_l	knee_angle_l_beta	ankle_angle_l	subtalar_angle_l	mtp_angle_l	L5_S1_Flex_Ext	L5_S1_Lat_Bending	L5_S1_axial_rotation	L4_L5_Flex_Ext	L4_L5_Lat_Bending	L4_L5_axial_rotation	L3_L4_Flex_Ext	L3_L4_Lat_Bending	L3_L4_axial_rotation	L2_L3_Flex_Ext	L2_L3_Lat_Bending	L2_L3_axial_rotation	L1_L2_Flex_Ext	L1_L2_Lat_Bending	L1_L2_axial_rotation	L1_T12_Flex_Ext	L1_T12_Lat_Bending	L1_T12_axial_rotation	Abs_r3	Abs_r2	Abs_r1	Abs_t1	Abs_t2	neck_flexion	neck_bending	neck_rotation	arm_flex_r	arm_add_r	arm_rot_r	elbow_flex_r	pro_sup_r	wrist_flex_r	wrist_dev_r	arm_flex_l	arm_add_l	arm_rot_l	elbow_flex_l	pro_sup_l	wrist_flex_l	wrist_dev_l
      1.55000000	      0.22818042	     -5.19104197	     88.75550326	      0.37724032	      0.90411617	      0.50723792	      1.46654634	      1.34484431	      0.19188417	      5.70581709	      0.09958529	     42.66371010	      8.02492984	      0.00000000	      5.24447423	     -3.55972023	      1.76132868	     16.06023972	      0.28030406	     41.55752302	     -0.96762292	      0.00000000	      0.13988566	      0.05293565	      0.58017959	      0.25978166	      0.07040441	      0.61644082	      0.22981815	      0.12870773	      0.61644082	      0.15987532	      0.12870773	      0.50765714	      0.12989783	      0.10794637	      0.47139592	      0.07993067	      0.08199732	      0.43513469	      0.99918930	      0.59881863	      3.22678484	      0.00000000	      0.00000000	     27.28954121	     -8.67630470	     -7.86076061	     10.96382426	     -7.95153201	     47.28164726	     36.92595375	     64.48869842	      9.87529106	      4.29041678	     18.40168707	     -8.68384745	     76.71480945	     43.73864804	     29.19326750	     -6.53667956	     -2.58736870
      1.56666667	      0.21571713	     -5.19228213	     88.71842595	      0.37731063	      0.90420727	      0.50718529	      1.45638402	      1.35362159	      0.16779374	      5.74980967	      0.10035311	     42.51756858	      7.77383777	      0.00000000	      5.13979826	     -3.56166012	      1.68143322	     15.92431911	      0.27793180	     41.30323857	     -0.75678214	      0.00000000	      0.13569858	      0.04879274	      0.60922614	      0.25200583	      0.06489435	      0.64730278	      0.22293919	      0.11863467	      0.64730278	      0.15508990	      0.11863467	      0.53307287	      0.12600970	      0.09949816	      0.49499624	      0.07753817	      0.07557996	      0.45691961	      0.96928137	      0.55195326	      3.38833304	      0.00000000	      0.00000000	     27.30741930	     -8.41897074	     -7.96545113	     11.20644670	     -8.10251774	     48.53367302	     36.96163785	     63.23038378	      9.87917023	      4.93928487	     18.15289850	     -8.57994357	     76.03198391	     43.54956022	     30.39663529	     -6.44129135	     -1.97665993
      1.58333333	      0.17416034	     -5.22729430	     88.49934445	      0.37764495	      0.90406562	      0.50712698	      1.41558158	      1.33357755	      0.46802539	      5.64330480	      0.09849425	     42.40260356	      7.57433951	      0.00000000	      5.21953004	     -3.48672339	      2.00995133	     16.16820483	      0.28218841	     41.18080620	     -1.28567176	      0.00000000	      0.14537207	      0.04993914	      0.61286541	      0.26997047	      0.06641906	      0.65116950	      0.23883177	      0.12142203	      0.65116950	      0.16614574	      0.12142203	      0.53625724	      0.13499250	      0.10183590	      0.49795315	      0.08306560	      0.07735573	      0.45964906	      1.03837816	      0.56492157	      3.40857357	      0.00000000	      0.00000000	     27.31290828	     -7.58386978	     -6.78673753	     11.93688965	     -8.21848333	     50.99872583	     36.37200898	     64.07734583	     10.67110580	      3.97661927	     17.99501359	     -8.71415796	     76.42173724	     43.39514226	     29.47849734	     -5.55693195	     -3.37952855
      1.60000000	      0.09693324	     -5.16344285	     88.63445790	      0.37752506	      0.90410524	      0.50705780	      1.27567804	      1.28036570	      0.61768072	      5.60330364	      0.09779610	     42.22401797	      6.94964385	      0.00000000	      5.15774813	     -3.29685255	      2.97773223	     16.19036145	      0.28257511	     40.84729967	     -2.21284769	      0.00000000	      0.14277097	      0.03750076	      0.62239081	      0.26513998	      0.04987601	      0.66129024	      0.23455843	      0.09117934	      0.66129024	      0.16317295	      0.09117934	      0.54459196	      0.13257713	      0.07647154	      0.50569254	      0.08157933	      0.05808867	      0.46679311	      1.01979880	      0.42421607	      3.46155099	      0.00000000	      0.00000000	     27.22640881	     -7.19350541	     -6.95927463	     12.36763325	     -8.36023975	     52.83592473	     36.12917083	     63.92328591	     10.68153549	      3.74222487	     18.35851199	     -8.72582095	     78.18588605	     43.17534005	     27.17379249	     -4.95432055	     -4.22358767
